<svg width="278" height="50" viewBox="0 0 278 50" fill="none" xmlns="http://www.w3.org/2000/svg">
<path d="M90.35 11.9594V18.5472L89.0448 18.0405C84.9256 16.4358 80.62 16.7905 76.9077 19.0202C74.721 20.3547 72.5004 23.0743 71.5511 25.5912C68.7033 33.1249 73.2971 41.5033 81.1625 43.1587C81.7897 43.2939 83.061 43.4121 83.9933 43.4121C89.1296 43.4121 93.5877 40.6587 95.8592 36.0641C97.2492 33.277 97.1814 33.9189 97.2492 20.0168L97.317 7.68576L94.0454 6.60468C92.2486 6.01346 90.6721 5.48981 90.5704 5.45603C90.4009 5.38846 90.35 6.75671 90.35 11.9594ZM86.7225 24.5777C89.1635 25.7601 90.6721 28.6317 90.1975 31.1824C89.7398 33.6486 88.0786 35.5574 85.7902 36.2499C83.2475 37.0101 80.4844 36.081 78.891 33.9189C77.7044 32.331 77.3654 30.304 77.9417 28.4121C79.1114 24.6959 83.2475 22.8885 86.7225 24.5777Z" fill="white"/>
<path d="M10.2216 6.87492L6.95001 7.9729V25.608V43.2432L10.4759 43.2094L13.9848 43.1587L14.0356 24.4425C14.0695 6.70601 14.0526 5.74316 13.7814 5.76006C13.6118 5.76006 12.0015 6.26682 10.2216 6.87492Z" fill="white"/>
<path d="M100.86 24.4087V43.0742H104.335H107.81V39.7972V36.5371L109.183 35.0675C109.929 34.2735 110.607 33.6148 110.675 33.6148C110.742 33.6148 112.149 35.7431 113.81 38.3445L116.845 43.0742H120.896C124.1 43.0742 124.93 43.0235 124.829 42.8546C124.541 42.3985 116.048 29.2735 115.76 28.8681L115.438 28.4121L120.438 22.9222C123.185 19.8985 125.439 17.3648 125.439 17.3141C125.439 17.2634 123.473 17.2296 121.083 17.2465H116.709L112.387 22.1283C110.013 24.8141 108.013 27.01 107.945 27.01C107.861 27.0269 107.81 22.2296 107.81 16.385V5.74314H104.335H100.86V24.4087Z" fill="white"/>
<path d="M259.642 10.1013L256.285 11.2331L256.336 21.4527C256.387 30.5405 256.438 31.7905 256.692 32.6858C258.065 37.4155 261.1 40.9121 265.371 42.6351C266.626 43.1419 268.711 43.5811 269.863 43.5811H270.711L270.677 40.152L270.626 36.7398L269.677 36.6385C267.728 36.4358 265.337 34.8648 264.32 33.1419C263.422 31.6216 263.252 30.6756 263.252 27.0101V23.6486H266.982H270.711V20.4392V17.2297H266.982H263.252V13.0912C263.252 10.8108 263.202 8.95268 263.134 8.96957C263.049 8.96957 261.489 9.49322 259.642 10.1013Z" fill="white"/>
<path d="M61.7024 17.6687C61.7024 18.3444 61.6685 18.4288 61.4142 18.3106C61.2447 18.243 60.465 17.9559 59.6683 17.6687C58.3122 17.1957 58.0749 17.162 55.7695 17.162C52.9725 17.1451 51.9216 17.3647 49.9044 18.3613C45.7344 20.4221 43.2425 23.9187 42.4797 28.8005C42.2594 30.2025 42.2424 30.2532 42.2255 29.4255C42.1746 26.7903 40.7677 23.4795 38.8183 21.4018C36.9536 19.4086 34.9195 18.2093 32.2073 17.466C30.7156 17.0606 27.6135 17.0775 26.1049 17.466C20.5957 18.9356 16.7308 23.2937 16.1206 28.7329C15.3747 35.3714 19.6125 41.368 26.1896 42.9897C27.8847 43.412 30.7156 43.3782 32.4277 42.9221C34.1736 42.466 36.5129 41.2329 37.7164 40.1518L38.6827 39.2735L37.191 37.8208C36.3604 37.0268 35.2585 35.9795 34.733 35.5066C33.7838 34.6282 33.7838 34.6282 33.4786 34.966C33.2922 35.1687 32.5972 35.591 31.9022 35.9457C30.7495 36.5032 30.5122 36.5539 29.173 36.5539C27.8847 36.5539 27.5796 36.4863 26.5795 36.0302C25.8675 35.6924 25.0878 35.1518 24.5454 34.5944L23.6469 33.6991L32.9362 33.6485L42.2085 33.6147V32.7194C42.2085 32.2464 42.2933 31.7228 42.378 31.5876C42.4967 31.4018 42.5475 31.4525 42.5475 31.8579C42.5475 33.3106 43.5985 36.064 44.8021 37.8376C48.2601 42.8714 54.9389 44.8309 60.7023 42.4998L61.7024 42.0944V42.5843V43.0741H65.1774H68.6524V29.9829V16.8917H65.1774H61.7024V17.6687ZM31.7666 24.4593C32.4446 24.7802 33.2244 25.3207 33.7668 25.8782L34.6652 26.7734L31.9191 26.8241C30.3935 26.841 27.9186 26.841 26.41 26.8241L23.6639 26.7734L24.5793 25.8444C26.5795 23.8174 29.2747 23.2937 31.7666 24.4593ZM58.3291 24.5437C59.8039 25.2532 60.6006 26.0471 61.3125 27.4998C61.9228 28.6991 61.9567 28.8849 61.9567 30.3207C61.9567 31.6045 61.8719 31.993 61.499 32.8039C59.6344 36.8241 54.3964 37.787 51.2944 34.6957C47.9211 31.3343 49.345 25.7261 53.9557 24.2228C55.1084 23.8511 57.2273 24.0032 58.3291 24.5437Z" fill="white"/>
<path d="M132.965 17.2973C128.05 18.4121 124.303 22.0608 122.947 27.0439C122.506 28.6993 122.54 31.9594 123.032 33.6824C124.795 39.8142 130.236 43.7162 136.525 43.3615C142.424 43.0236 147.221 39.1385 148.679 33.4966C149.137 31.6723 149.137 28.8007 148.662 26.9426C147.51 22.4324 143.865 18.7162 139.39 17.4662C138.034 17.0946 134.338 16.9932 132.965 17.2973ZM137.644 24.1892C139.22 24.6621 140.712 25.9121 141.458 27.348C143.051 30.5067 141.729 34.3581 138.508 35.9459C137.661 36.3513 137.373 36.402 135.864 36.402C134.372 36.402 134.05 36.3513 133.203 35.9459C131.948 35.3716 130.626 34.054 130.05 32.804C129.66 31.9763 129.592 31.6216 129.592 30.2365C129.592 28.7669 129.643 28.5304 130.151 27.5C131.541 24.679 134.66 23.3108 137.644 24.1892Z" fill="white"/>
<path d="M151.713 30.0675V43.0742H155.188H158.646L158.697 35.5067C158.748 28.6654 158.782 27.9053 159.053 27.4154C159.528 26.5371 160.342 25.6925 161.189 25.2026C161.867 24.7972 162.138 24.7465 163.41 24.7465C164.562 24.7465 164.986 24.831 165.529 25.1181C166.512 25.6418 167.309 26.4864 167.8 27.5337L168.241 28.4627L168.292 35.76L168.343 43.0742H171.733H175.106V35.5067C175.106 28.4965 175.089 27.8208 174.767 26.5877C174.225 24.4087 173.377 22.9222 171.716 21.2668C170.495 20.0168 170.038 19.6958 168.665 19.0371C166.919 18.1925 165.054 17.7364 163.41 17.7364C162.257 17.7364 160.189 18.1249 159.274 18.4965L158.663 18.7499V17.9053V17.0607H155.188H151.713V30.0675Z" fill="white"/>
<path d="M178.666 30.0675V43.0742H182.141H185.616V35.6756C185.616 28.6148 185.633 28.26 185.972 27.5337C187.345 24.51 191.193 23.7161 193.6 25.9627C194.041 26.3681 194.566 27.0945 194.786 27.5844C195.193 28.4627 195.193 28.5134 195.244 35.7769L195.295 43.0742H198.685H202.059V35.6756C202.059 31.081 201.991 27.8884 201.872 27.2634C201.228 23.733 198.77 20.5404 195.532 19.0033C193.786 18.1756 192.888 17.9391 191.057 17.7871C189.616 17.6857 187.938 17.9053 186.514 18.4121L185.616 18.7161V17.8884V17.0607H182.141H178.666V30.0675Z" fill="white"/>
<path d="M241.47 17.1623C239.639 17.5339 239.131 17.669 238.249 18.0238C236.792 18.6319 234.605 20.1184 233.639 21.1826C231.35 23.6826 230.282 26.1826 230.079 29.5609C229.723 35.8954 233.893 41.5204 240.097 43.0744C241.911 43.5305 244.589 43.5305 246.403 43.0744C248.454 42.5677 250.675 41.3853 252.166 40.0001C252.861 39.3413 253.59 38.5812 253.794 38.3109L254.15 37.7873L253.743 37.4832C253.522 37.3143 252.251 36.4528 250.946 35.5576L248.539 33.919L247.759 34.713C247.301 35.1521 246.471 35.7265 245.827 36.0305C244.843 36.4866 244.521 36.5542 243.335 36.5373C241.504 36.5204 240.317 36.0643 239.029 34.865C238.351 34.2569 237.893 33.6319 237.554 32.9055C237.114 31.9596 237.063 31.6555 237.063 30.2366C237.063 28.767 237.114 28.5305 237.605 27.517C238.266 26.1826 239.334 25.1521 240.673 24.5271C241.521 24.1217 241.843 24.0711 243.335 24.0711C244.843 24.0711 245.132 24.1217 245.979 24.5271C246.488 24.7974 247.267 25.338 247.708 25.7603L248.488 26.5373L251.302 24.5778L254.099 22.6015L253.59 21.9596C251.76 19.6623 248.929 17.9393 245.928 17.3312C244.742 17.0947 242.335 16.9934 241.47 17.1623Z" fill="white"/>
<path d="M213.501 17.5508C208.703 18.7164 204.957 22.5171 203.821 27.3312C203.432 28.9529 203.482 31.8414 203.906 33.463C205.161 38.311 209.026 41.9596 213.975 43.0238C215.586 43.3617 218.84 43.2265 220.281 42.7704C221.841 42.2806 223.4 41.4867 224.604 40.5745C226.35 39.2569 226.417 39.5441 223.875 37.1454C222.637 35.9799 221.552 34.9833 221.434 34.9157C221.332 34.8481 220.824 35.0846 220.298 35.4562C217.654 37.2975 214.145 36.9427 211.958 34.5948L211.127 33.6995L220.434 33.6488L229.723 33.615L229.638 30.7772C229.57 28.5475 229.486 27.686 229.197 26.6894C227.858 22.1792 224.282 18.6995 219.79 17.5677C218.077 17.1285 215.213 17.1285 213.501 17.5508ZM219.281 24.409C219.84 24.6792 220.705 25.3211 221.213 25.8279L222.146 26.7738L219.4 26.8245C217.874 26.8414 215.399 26.8414 213.891 26.8245L211.127 26.7738L211.873 25.963C213.314 24.4258 214.806 23.8008 216.908 23.8684C218.01 23.9191 218.484 24.0204 219.281 24.409Z" fill="white"/>
</svg>
