<svg width="121" height="121" viewBox="0 0 121 121" fill="none" xmlns="http://www.w3.org/2000/svg">
<path d="M12.6042 47.8958H108.396V103.354C108.396 104.691 107.865 105.974 106.919 106.919C105.974 107.865 104.691 108.396 103.354 108.396H17.6458C16.3087 108.396 15.0263 107.865 14.0808 106.919C13.1353 105.974 12.6042 104.691 12.6042 103.354V47.8958Z" stroke="black" stroke-width="4" stroke-linejoin="round"/>
<path d="M12.6042 25.2083C12.6042 23.8712 13.1353 22.5888 14.0808 21.6433C15.0263 20.6978 16.3087 20.1666 17.6458 20.1666H103.354C104.691 20.1666 105.974 20.6978 106.919 21.6433C107.865 22.5888 108.396 23.8712 108.396 25.2083V47.8958H12.6042V25.2083Z" stroke="black" stroke-width="4" stroke-linejoin="round"/>
<path d="M40.3333 78.1458L55.4583 93.2707L85.7083 63.0208" stroke="black" stroke-width="4" stroke-linecap="round" stroke-linejoin="round"/>
<path d="M40.3333 12.6041V32.7708" stroke="black" stroke-width="4" stroke-linecap="round"/>
<path d="M80.6667 12.6041V32.7708" stroke="black" stroke-width="4" stroke-linecap="round"/>
</svg>
