<svg width="123" height="122" viewBox="0 0 123 122" fill="none" xmlns="http://www.w3.org/2000/svg">
<path d="M47.1335 88.5611C44.7317 95.7667 38.9543 101.078 30.4267 103.92C26.5315 105.211 22.4683 105.925 18.3663 106.04C17.8608 106.04 17.3759 105.839 17.0184 105.482C16.6609 105.124 16.4601 104.639 16.4601 104.134C16.5747 100.032 17.2888 95.9686 18.5798 92.0733C21.4225 83.5457 26.7338 77.7684 33.939 75.3665C34.1765 75.2873 34.4272 75.2557 34.677 75.2734C34.9267 75.2912 35.1705 75.358 35.3944 75.4699C35.6183 75.5819 35.818 75.7368 35.982 75.926C36.146 76.1151 36.2712 76.3347 36.3504 76.5722C36.4295 76.8097 36.4611 77.0605 36.4434 77.3102C36.4257 77.5599 36.3589 77.8037 36.2469 78.0276C36.135 78.2515 35.98 78.4512 35.7909 78.6152C35.6018 78.7793 35.3822 78.9044 35.1447 78.9836C23.2735 82.941 20.8764 96.8513 20.3936 102.106C25.6472 101.624 39.5591 99.228 43.5164 87.3558C43.6763 86.8762 44.0202 86.4797 44.4724 86.2536C44.9247 86.0275 45.4482 85.9903 45.9278 86.1501C46.4075 86.31 46.804 86.6539 47.0301 87.1061C47.2562 87.5584 47.2934 88.0819 47.1335 88.5615V88.5611ZM95.1977 51.5646L90.3644 56.3979V86.3794C90.3665 87.1306 90.2196 87.8747 89.9323 88.5688C89.6449 89.2629 89.2228 89.8931 88.6903 90.423L73.2768 105.836C72.5449 106.568 71.628 107.087 70.6241 107.339C69.6201 107.591 68.5666 107.565 67.5759 107.265C66.5852 106.966 65.6946 106.402 64.9989 105.636C64.3031 104.87 63.8285 103.929 63.6255 102.914L59.7443 83.5067L38.9934 62.7562L19.5868 58.8746C18.5718 58.6716 17.6309 58.197 16.8644 57.5013C16.098 56.8056 15.5347 55.915 15.2347 54.9243C14.9347 53.9336 14.9092 52.8801 15.1609 51.8761C15.4126 50.8721 15.9322 49.9552 16.664 49.2232L32.077 33.8102C32.6069 33.2777 33.2371 32.8555 33.9312 32.568C34.6252 32.2806 35.3694 32.1336 36.1207 32.1356H66.1022L70.9355 27.3018C83.9456 14.2917 97.1955 14.6538 102.288 15.414C103.498 15.5895 104.619 16.1515 105.484 17.016C106.348 17.8806 106.91 19.0015 107.086 20.2115C107.846 25.3045 108.209 38.5535 95.1977 51.5646ZM20.3345 55.1359L39.3065 58.9308L62.2897 35.9481H36.1207C35.8702 35.9474 35.622 35.9965 35.3906 36.0923C35.1592 36.1882 34.9491 36.329 34.7725 36.5066L19.3595 51.9187C19.1155 52.1627 18.9423 52.4683 18.8584 52.803C18.7744 53.1378 18.783 53.489 18.883 53.8192C18.983 54.1495 19.1709 54.4464 19.4264 54.6783C19.682 54.9102 19.9957 55.0683 20.3341 55.1359H20.3345ZM86.5519 60.2104L63.5692 83.1936L67.3636 102.166C67.4312 102.504 67.5893 102.818 67.8212 103.073C68.0532 103.329 68.3501 103.517 68.6805 103.617C69.0108 103.717 69.3621 103.726 69.6969 103.642C70.0317 103.558 70.3374 103.384 70.5814 103.14L85.9939 87.7271C86.1714 87.5505 86.3121 87.3404 86.4079 87.1091C86.5037 86.8778 86.5526 86.6298 86.5519 86.3794V60.2104ZM92.5023 48.8687C104.287 37.0837 103.99 25.296 103.315 20.7748C103.257 20.3738 103.071 20.0024 102.784 19.7159C102.498 19.4293 102.127 19.2429 101.726 19.1845C97.2036 18.5102 85.4158 18.2133 73.6309 29.9977L68.2395 35.3896V35.39L42.6286 61L61.5 79.871L87.1105 54.2605L92.5023 48.8687Z" fill="black"/>
</svg>
