<svg width="128" height="121" viewBox="0 0 128 121" fill="none" xmlns="http://www.w3.org/2000/svg">
<path d="M117.857 63.5406L101.857 25.7512C101.852 25.7375 101.843 25.7256 101.837 25.7124C101.822 25.6784 101.803 25.6463 101.785 25.6132C101.749 25.5445 101.709 25.4779 101.664 25.4139C101.642 25.3811 101.618 25.349 101.594 25.3175C101.54 25.2507 101.482 25.1875 101.419 25.1281C101.4 25.1092 101.383 25.0889 101.363 25.0714C101.28 24.9981 101.19 24.9318 101.094 24.873C101.067 24.8565 101.037 24.8428 101.009 24.8272C100.937 24.7871 100.863 24.7513 100.786 24.72C100.749 24.7047 100.711 24.6906 100.673 24.6775C100.596 24.6518 100.517 24.6306 100.438 24.6142C100.402 24.6066 100.368 24.5967 100.331 24.591C100.222 24.573 100.111 24.5637 100 24.5631L99.985 24.5641C99.9595 24.5641 99.9335 24.5688 99.908 24.5698C99.8094 24.574 99.7113 24.585 99.6145 24.6028C99.5985 24.6057 99.5825 24.6047 99.566 24.6085L66 31.6553V18.8947C66 18.3936 65.7893 17.913 65.4142 17.5587C65.0391 17.2043 64.5304 17.0052 64 17.0052C63.4696 17.0052 62.9609 17.2043 62.5858 17.5587C62.2107 17.913 62 18.3936 62 18.8947V32.4952L27.566 39.7243C27.5475 39.7281 27.531 39.7366 27.5125 39.7408C27.42 39.763 27.3292 39.7914 27.241 39.8258C27.2145 39.8358 27.1865 39.8443 27.1605 39.8556C27.0557 39.9013 26.9554 39.9555 26.8605 40.0176C26.834 40.0346 26.811 40.0549 26.7855 40.0734C26.7173 40.1227 26.6525 40.176 26.5915 40.233C26.564 40.259 26.5373 40.2858 26.5115 40.3133C26.4557 40.3725 26.404 40.435 26.3565 40.5004C26.3375 40.5268 26.3165 40.5519 26.2995 40.5788C26.2386 40.6704 26.1862 40.7668 26.143 40.8669L26.1395 40.8745L26.1375 40.8792L10.143 78.6564C10.0486 78.8795 10 79.1176 10 79.3579C10 88.9932 21.041 92.5842 28 92.5842C34.959 92.5842 46 88.9932 46 79.3579C46 79.1176 45.9514 78.8795 45.857 78.6564L30.73 42.9302L62 36.3657V100.142H52C51.4696 100.142 50.9609 100.341 50.5858 100.696C50.2107 101.05 50 101.53 50 102.032C50 102.533 50.2107 103.013 50.5858 103.368C50.9609 103.722 51.4696 103.921 52 103.921H76C76.5304 103.921 77.0391 103.722 77.4142 103.368C77.7893 103.013 78 102.533 78 102.032C78 101.53 77.7893 101.05 77.4142 100.696C77.0391 100.341 76.5304 100.142 76 100.142H66V35.5259L96.7365 29.0733L82.143 63.5406C82.0486 63.7637 82 64.0018 82 64.2421C82 73.8775 93.041 77.4684 100 77.4684C106.959 77.4684 118 73.8775 118 64.2421C118 64.0018 117.951 63.7637 117.857 63.5406ZM28 88.8053C24.423 88.8053 14.3135 87.1217 14.007 79.7046L28 46.6563L41.993 79.7046C41.6865 87.1217 31.577 88.8053 28 88.8053ZM100 73.6895C96.423 73.6895 86.3135 72.0059 86.007 64.5888L100 31.5405L113.993 64.5888C113.686 72.0059 103.577 73.6895 100 73.6895Z" fill="black"/>
</svg>
