<svg width="100" height="99" viewBox="0 0 100 99" fill="none" xmlns="http://www.w3.org/2000/svg">
<rect x="0.5" y="0.5" width="99" height="98" rx="25.5" fill="#FFEEF1" stroke="#FFE0E6"/>
<path d="M44.45 21.85H18.55C16.515 21.85 14.85 23.515 14.85 25.55V51.45C14.85 53.4868 16.515 55.15 18.55 55.15H31.5V42.2H27.8V37.6212H31.5V33.8287C31.5 29.8253 33.7422 27.0133 38.4671 27.0133L41.8027 27.017V31.8363H39.5882C37.7493 31.8363 37.05 33.2164 37.05 34.4966V37.6231H41.8008L40.75 42.2H37.05V55.15H44.45C46.485 55.15 48.15 53.4868 48.15 51.45V25.55C48.15 23.515 46.485 21.85 44.45 21.85Z" fill="#FF747C"/>
<path d="M71.5 43C67.0223 43 66.4593 43.0206 64.6999 43.099C62.9406 43.1815 61.7423 43.4579 60.6925 43.8662C59.5913 44.2804 58.5939 44.9301 57.7699 45.7699C56.9307 46.5943 56.281 47.5916 55.8662 48.6925C55.4579 49.7403 55.1794 50.9406 55.099 52.6937C55.0206 54.4572 55 55.0182 55 59.5021C55 63.9818 55.0206 64.5428 55.099 66.3021C55.1815 68.0594 55.4579 69.2577 55.8662 70.3075C56.2891 71.3924 56.8521 72.3122 57.7699 73.2301C58.6857 74.1479 59.6056 74.713 60.6904 75.1338C61.7423 75.5421 62.9386 75.8206 64.6958 75.901C66.4572 75.9794 67.0182 76 71.5 76C75.9818 76 76.5408 75.9794 78.3021 75.901C80.0573 75.8185 81.2598 75.5421 82.3096 75.1338C83.41 74.7194 84.4067 74.0697 85.2301 73.2301C86.1479 72.3122 86.7109 71.3924 87.1338 70.3075C87.5401 69.2577 87.8185 68.0594 87.901 66.3021C87.9794 64.5428 88 63.9818 88 59.5C88 55.0182 87.9794 54.4572 87.901 52.6958C87.8185 50.9406 87.5401 49.7403 87.1338 48.6925C86.719 47.5916 86.0694 46.5943 85.2301 45.7699C84.4064 44.9298 83.4089 44.2801 82.3075 43.8662C81.2556 43.4579 80.0553 43.1794 78.3001 43.099C76.5387 43.0206 75.9797 43 71.4959 43H71.5021H71.5ZM70.0212 45.9741H71.5021C75.9076 45.9741 76.4294 45.9886 78.1681 46.069C79.7768 46.1412 80.6513 46.4114 81.2329 46.6362C82.0022 46.9353 82.5529 47.2941 83.1304 47.8716C83.7079 48.4491 84.0648 48.9978 84.3638 49.7691C84.5907 50.3487 84.8588 51.2232 84.931 52.8319C85.0114 54.5706 85.0279 55.0924 85.0279 59.4959C85.0279 63.8993 85.0114 64.4232 84.931 66.1619C84.8588 67.7706 84.5886 68.6431 84.3638 69.2247C84.0993 69.9411 83.6771 70.5889 83.1284 71.1201C82.5509 71.6976 82.0023 72.0544 81.2309 72.3535C80.6534 72.5804 79.7789 72.8485 78.1681 72.9228C76.4294 73.0011 75.9076 73.0197 71.5021 73.0197C67.0966 73.0197 66.5727 73.0011 64.834 72.9228C63.2253 72.8485 62.3528 72.5804 61.7712 72.3535C61.0545 72.0893 60.4061 71.6679 59.8737 71.1201C59.3245 70.5881 58.9017 69.9397 58.6362 69.2226C58.4114 68.6431 58.1412 67.7686 58.069 66.1598C57.9906 64.4211 57.9741 63.8993 57.9741 59.4917C57.9741 55.0862 57.9906 54.5665 58.069 52.8278C58.1432 51.2191 58.4114 50.3446 58.6383 49.7629C58.9373 48.9936 59.2962 48.4429 59.8737 47.8654C60.4512 47.2879 60.9998 46.9311 61.7712 46.6321C62.3528 46.4052 63.2253 46.1371 64.834 46.0628C66.3561 45.9927 66.946 45.9721 70.0212 45.97V45.9741ZM80.3089 48.7131C80.0489 48.7131 79.7914 48.7643 79.5512 48.8638C79.311 48.9633 79.0927 49.1092 78.9089 49.2931C78.725 49.4769 78.5792 49.6952 78.4797 49.9354C78.3801 50.1756 78.3289 50.4331 78.3289 50.6931C78.3289 50.9531 78.3801 51.2106 78.4797 51.4508C78.5792 51.6911 78.725 51.9093 78.9089 52.0932C79.0927 52.2771 79.311 52.4229 79.5512 52.5224C79.7914 52.6219 80.0489 52.6731 80.3089 52.6731C80.8341 52.6731 81.3377 52.4645 81.709 52.0932C82.0803 51.7219 82.2889 51.2183 82.2889 50.6931C82.2889 50.168 82.0803 49.6644 81.709 49.2931C81.3377 48.9217 80.8341 48.7131 80.3089 48.7131ZM71.5021 51.0273C70.3781 51.0097 69.262 51.2159 68.2185 51.6339C67.1751 52.0519 66.2252 52.6733 65.4242 53.4619C64.6232 54.2505 63.9871 55.1905 63.5529 56.2273C63.1187 57.2642 62.895 58.377 62.895 59.501C62.895 60.6251 63.1187 61.7379 63.5529 62.7747C63.9871 63.8115 64.6232 64.7516 65.4242 65.5402C66.2252 66.3288 67.1751 66.9502 68.2185 67.3681C69.262 67.7861 70.3781 67.9923 71.5021 67.9748C73.7266 67.9401 75.8482 67.0321 77.409 65.4467C78.9698 63.8613 79.8447 61.7258 79.8447 59.501C79.8447 57.2763 78.9698 55.1407 77.409 53.5554C75.8482 51.97 73.7266 51.062 71.5021 51.0273ZM71.5021 53.9993C72.9609 53.9993 74.3601 54.5788 75.3916 55.6104C76.4232 56.642 77.0028 58.0411 77.0028 59.5C77.0028 60.9589 76.4232 62.358 75.3916 63.3896C74.3601 64.4212 72.9609 65.0007 71.5021 65.0007C70.0432 65.0007 68.6441 64.4212 67.6125 63.3896C66.5809 62.358 66.0014 60.9589 66.0014 59.5C66.0014 58.0411 66.5809 56.642 67.6125 55.6104C68.6441 54.5788 70.0432 53.9993 71.5021 53.9993Z" fill="#FF747C"/>
</svg>
