<svg width="100" height="99" viewBox="0 0 100 99" fill="none" xmlns="http://www.w3.org/2000/svg">
<rect x="0.5" y="0.5" width="99" height="98" rx="25.5" fill="#FFEEF1" stroke="#FFE0E6"/>
<g clip-path="url(#clip0)">
<path d="M35 26.0002V25.9789C35 23.7752 35.4813 21.6827 36.345 19.8039L36.3075 19.8964L43.4663 39.4965C40.9671 38.2896 38.8523 36.4123 37.3575 34.0739L37.3213 34.0139C35.7982 31.6645 34.9917 28.9226 35 26.1227V25.9939V26.0002ZM60.1238 25.2389C60.1238 25.5039 60.105 25.7652 60.0713 26.0202L60.075 25.9902C60.0243 26.3367 59.953 26.6798 59.8613 27.0177L59.875 26.9564C59.7775 27.3464 59.7029 27.6323 59.6513 27.8139C59.5996 27.9956 59.4871 28.3794 59.3138 28.9652C59.1388 29.5502 59.025 29.9273 58.9725 30.0964L57.49 35.0889L52.0675 18.9777C52.6675 18.9385 53.24 18.8864 53.785 18.8214C53.8946 18.8165 54.0004 18.7802 54.09 18.7168C54.1795 18.6534 54.2489 18.5657 54.29 18.4639L54.2913 18.4602C54.3366 18.3642 54.3559 18.258 54.3471 18.1522C54.3383 18.0465 54.3018 17.9449 54.2413 17.8577L54.2425 17.8602C54.1836 17.7682 54.0999 17.6946 54.0011 17.6479C53.9022 17.6013 53.7923 17.5834 53.6838 17.5964H53.6863L49.6863 17.7964C48.7113 17.7831 47.3979 17.7164 45.7463 17.5964C45.6046 17.5799 45.4619 17.616 45.345 17.6977L45.3475 17.6964C45.2442 17.7662 45.1661 17.8675 45.125 17.9852L45.1238 17.9889C45.0833 18.1062 45.0734 18.2318 45.095 18.3539V18.3489C45.1152 18.4728 45.1769 18.5861 45.27 18.6702C45.3744 18.7645 45.5082 18.8197 45.6488 18.8264H45.65L47.21 18.9827L49.5513 25.3827L46.2738 35.2139L40.8125 18.9752C41.4125 18.936 41.985 18.8839 42.53 18.8189C42.6396 18.814 42.7454 18.7777 42.835 18.7143C42.9245 18.6509 42.9939 18.5632 43.035 18.4614L43.0363 18.4577C43.0816 18.3617 43.1009 18.2555 43.0921 18.1497C43.0833 18.044 43.0468 17.9424 42.9863 17.8552L42.9875 17.8577C42.9286 17.7657 42.8449 17.6921 42.7461 17.6454C42.6472 17.5988 42.5373 17.5809 42.4288 17.5939H42.4313L38.4313 17.7939C38.3396 17.7939 38.19 17.7906 37.9825 17.7839C37.775 17.7773 37.6058 17.7739 37.475 17.7739C38.8109 15.7353 40.622 14.0516 42.7525 12.8677L42.8288 12.8289C45.0258 11.6249 47.4922 10.9975 49.9975 11.0052C51.9663 11.0052 53.8475 11.3852 55.57 12.0739L55.4688 12.0377C57.1882 12.7165 58.7685 13.7049 60.1313 14.9539L60.12 14.9439H59.875C59.1788 14.9439 58.555 15.2489 58.1275 15.7314L58.125 15.7339C57.6825 16.2089 57.4113 16.8489 57.4113 17.5514V17.5889V17.5864C57.4113 17.7514 57.425 17.9139 57.4525 18.0714L57.45 18.0539C57.4758 18.2098 57.5017 18.3494 57.5275 18.4727C57.5688 18.6439 57.6225 18.7939 57.69 18.9352L57.6838 18.9214C57.7621 19.0964 57.8208 19.2331 57.86 19.3314C57.9363 19.5027 58.015 19.6464 58.1025 19.7839L58.0938 19.7702C58.2113 19.9652 58.2925 20.1019 58.3375 20.1802C58.3825 20.2585 58.4767 20.4144 58.62 20.6477L58.8925 21.0964C59.6363 22.2714 60.09 23.6952 60.12 25.2227V25.2314L60.1238 25.2389ZM50.2538 27.3077L54.8763 39.9277C54.8913 40.0102 54.9263 40.084 54.9763 40.1439V40.1427C53.3807 40.7135 51.6983 41.0036 50.0038 41.0002H49.9688C48.5103 41.0018 47.0601 40.7822 45.6675 40.3489L45.77 40.3764L50.2538 27.3077ZM63.1475 18.8077C64.3701 20.9991 65.0081 23.4683 65 25.9777V26.0089V26.0077V26.1164C65 28.8502 64.2463 31.4077 62.9338 33.5927L62.97 33.5264C61.6692 35.7533 59.8201 37.6101 57.5988 38.9202L57.5288 38.959L62.1125 25.7264C62.75 24.1402 63.1638 22.3039 63.2613 20.3839L63.2625 20.3427V20.2989C63.2628 19.7789 63.221 19.2597 63.1375 18.7464L63.145 18.8014L63.1475 18.8077Z" fill="#FF747C"/>
</g>
<path d="M35.579 61.36C35.73 61.437 35.87 61.541 35.984 61.667L39.115 60.271L36.194 57.375L35.537 61.318L35.579 61.36ZM29.079 58.729C29.235 58.958 29.328 59.218 29.36 59.494L34.021 61.469C34.161 61.36 34.322 61.281 34.494 61.234L35.259 56.499L32.42 53.52L29.077 58.655L29.079 58.729ZM44.989 66.047L39.994 61.052L36.593 62.443L44.948 65.995C44.948 65.995 45.021 66.047 44.989 66.047ZM44.156 66.86L36.136 63.432C36.0244 63.5798 35.8843 63.7038 35.7241 63.7967C35.5639 63.8896 35.3867 63.9495 35.203 63.973L34.344 69.25C34.599 69.51 34.745 69.859 34.745 70.223L39.588 71.239L44.031 66.827V66.744L44.156 66.86ZM33.531 62.333L29.178 60.478C29.0283 60.7084 28.8215 60.8962 28.5778 61.023C28.334 61.1499 28.0616 61.2115 27.787 61.202H27.522L23.913 66.77L33.548 62.598V62.609C33.543 62.5344 33.543 62.4596 33.548 62.385C33.553 62.369 33.548 62.349 33.532 62.333H33.531ZM38.823 72.079L34.563 71.198C34.4048 71.4053 34.1918 71.5643 33.948 71.657L32.932 77.954L38.849 72.089C38.849 72.089 38.838 72.121 38.822 72.121L38.823 72.079ZM32.864 71.645C32.6622 71.5624 32.4826 71.4336 32.3397 71.269C32.1967 71.1043 32.0944 70.9084 32.041 70.697L24.109 69.068L23.994 69.251L31.193 79.662L31.625 79.235L32.849 71.672C32.849 71.672 32.89 71.703 32.864 71.688V71.645ZM24.276 68.109L32.115 69.724C32.2274 69.527 32.3863 69.3604 32.5779 69.2389C32.7695 69.1174 32.9879 69.0447 33.214 69.027L34.063 63.839L33.88 63.683L24.136 67.86C24.188 67.937 24.235 68.021 24.276 68.109ZM20.989 69.416L20.822 69.251L17.442 70.64L19.082 72.271L20.947 69.375L20.989 69.416ZM23.219 69.948C22.9833 70.0542 22.7284 70.111 22.47 70.115C22.261 70.115 22.063 70.083 21.865 70.016L19.808 73.011L28.829 81.948L30.417 80.369L23.219 69.948ZM21.953 66.427C22.088 66.412 22.229 66.412 22.369 66.427C22.521 66.407 22.677 66.407 22.828 66.427L26.473 60.76C26.1891 60.4645 26.0303 60.0708 26.03 59.661C26.015 59.5401 26.015 59.4179 26.03 59.297L21.603 57.25L18.04 60.718L21.953 66.427ZM22.355 56.557L26.672 58.396C26.9838 58.1356 27.3811 58.0002 27.787 58.016C27.964 58.021 28.14 58.047 28.312 58.099L31.683 52.839L28.896 50.052L22.355 56.473C22.355 56.473 22.344 56.541 22.355 56.557ZM20.74 67.443C20.828 67.282 20.937 67.131 21.063 66.995L17.37 61.484L13.001 65.729L20.74 67.443ZM20.391 68.375L13.708 66.979L16.645 69.959L20.349 68.386L20.391 68.375Z" fill="#FF747C"/>
<path fill-rule="evenodd" clip-rule="evenodd" d="M69.8175 54C66.9627 54 64.6667 56.3952 64.6667 59.3293C64.6667 61.1132 65.516 62.6975 66.8215 63.6647C66.1487 64.1688 65.6033 64.8235 65.2291 65.5764C64.8549 66.3292 64.6623 67.1593 64.6667 68C64.6667 69.785 65.516 71.3682 66.8215 72.3353C66.1487 72.8394 65.6033 73.4942 65.2291 74.247C64.8549 74.9999 64.6623 75.8299 64.6667 76.6707C64.6667 79.6048 66.9627 82 69.8175 82C72.6712 82 74.9683 79.6048 74.9683 76.6707V72.165C75.8706 72.9173 77.0078 73.3296 78.1825 73.3305C81.0373 73.3293 83.3333 70.9342 83.3333 68C83.3333 66.215 82.4852 64.6318 81.1785 63.6647C81.8513 63.1606 82.3967 62.5058 82.7709 61.753C83.1451 61.0001 83.3377 60.1701 83.3333 59.3293C83.3333 56.3952 81.0373 54 78.1825 54H69.8175ZM66.6022 59.3293C66.6022 57.4732 68.0512 55.9868 69.8175 55.9868H73.0317V62.6718H69.8175C68.0512 62.6718 66.6022 61.1843 66.6022 59.3293ZM78.1825 62.6707H74.9683V55.9857H78.1825C79.95 55.9857 81.3978 57.4732 81.3978 59.3293C81.3978 61.1843 79.95 62.6707 78.1825 62.6707ZM66.6033 68C66.6033 66.145 68.0523 64.6575 69.8187 64.6575H73.0328V71.3425H69.8175C68.05 71.3425 66.6022 69.855 66.6022 68H66.6033ZM74.9683 68C74.9683 66.145 76.4173 64.6575 78.1837 64.6575C79.9512 64.6575 81.399 66.1438 81.399 68C81.399 69.855 79.9512 71.3425 78.1837 71.3425C76.4173 71.3425 74.9695 69.8562 74.9695 68H74.9683ZM66.6033 76.6707C66.6033 74.8157 68.0523 73.3293 69.8187 73.3293H73.0328V76.6707C73.0328 78.5268 71.5862 80.0132 69.8187 80.0132C68.0523 80.0132 66.6033 78.5268 66.6033 76.6707Z" fill="#FF747C"/>
<defs>
<clipPath id="clip0">
<rect width="30" height="30" fill="white" transform="translate(35 11)"/>
</clipPath>
</defs>
</svg>
