<svg width="100" height="99" viewBox="0 0 100 99" fill="none" xmlns="http://www.w3.org/2000/svg">
<rect x="0.5" y="0.5" width="99" height="98" rx="25.5" fill="#FFEEF1" stroke="#FFE0E6"/>
<path d="M33 58.1022C16.2924 58.1022 16 59.8023 16 73.0803C16 86.3583 16.2924 88.0584 33 88.0584C49.7076 88.0584 50 86.3583 50 73.0803C50 59.8023 49.7076 58.1022 33 58.1022ZM38.4485 73.73L30.8155 77.8071C30.1474 78.1612 29.6 77.7643 29.6 76.9201V69.2404C29.6 68.3982 30.1474 67.9994 30.8155 68.3534L38.4485 72.4306C39.1166 72.7885 39.1166 73.3721 38.4485 73.73Z" fill="#FF747C"/>
<path d="M71 16.25C62.3023 16.25 55.25 23.3023 55.25 32C55.25 40.6977 62.3023 47.75 71 47.75C79.6977 47.75 86.75 40.6977 86.75 32C86.75 23.3023 79.6977 16.25 71 16.25ZM76.8711 38.525C75.4438 39.8398 73.4961 40.6133 71.1723 40.6133C67.8078 40.6133 64.8969 38.6832 63.4801 35.8707C62.8965 34.707 62.5625 33.3922 62.5625 32C62.5625 30.6078 62.8965 29.293 63.4801 28.1293C64.8969 25.3133 67.8078 23.3832 71.1723 23.3832C73.4926 23.3832 75.4402 24.2375 76.9344 25.6262L74.4664 28.0977C73.5734 27.2434 72.4379 26.8109 71.1758 26.8109C68.9328 26.8109 67.0344 28.3262 66.3559 30.3617C66.1836 30.8785 66.0852 31.4305 66.0852 32C66.0852 32.5695 66.1836 33.1215 66.3559 33.6383C67.0344 35.6738 68.9328 37.1891 71.1723 37.1891C72.3324 37.1891 73.3168 36.8832 74.0867 36.3664C75.0008 35.7547 75.6055 34.8441 75.8059 33.7648H71.1723V30.432H79.2828C79.3848 30.998 79.4375 31.5852 79.4375 32.1934C79.4375 34.8195 78.4988 37.0238 76.8711 38.525Z" fill="#FF747C"/>
</svg>
